<svg xmlns="http://www.w3.org/2000/svg" xmlns:xlink="http://www.w3.org/1999/xlink" width="500" zoomAndPan="magnify" viewBox="0 0 375 374.999991" height="500" preserveAspectRatio="xMidYMid meet" version="1.0"><defs><clipPath id="ac048bb10a"><path d="M 11.0625 41.058594 L 363.5625 41.058594 L 363.5625 125 L 11.0625 125 Z M 11.0625 41.058594 " clip-rule="nonzero"/></clipPath><clipPath id="0e24cf483f"><path d="M 11.0625 90.015625 L 363.5625 90.015625 L 363.5625 333.925781 L 11.0625 333.925781 Z M 11.0625 90.015625 " clip-rule="nonzero"/></clipPath></defs><g clip-path="url(#ac048bb10a)"><path fill="#0e2b63" d="M 11.0625 124.277344 L 11.0625 72.8125 C 11.0625 55.273438 25.28125 41.058594 42.816406 41.058594 L 111.03125 41.058594 C 117.753906 41.058594 124.300781 43.191406 129.734375 47.152344 L 159.433594 68.796875 L 332.171875 68.796875 C 349.710938 68.796875 363.925781 83.015625 363.925781 100.550781 L 363.925781 124.277344 L 11.0625 124.277344 " fill-opacity="1" fill-rule="nonzero"/></g><g clip-path="url(#0e24cf483f)"><path fill="#364b9b" d="M 332.171875 90.085938 L 42.816406 90.085938 C 25.28125 90.085938 11.0625 104.300781 11.0625 121.839844 L 11.0625 302.175781 C 11.0625 319.710938 25.28125 333.925781 42.816406 333.925781 L 332.171875 333.925781 C 349.710938 333.925781 363.925781 319.710938 363.925781 302.175781 L 363.925781 121.839844 C 363.925781 104.300781 349.710938 90.085938 332.171875 90.085938 " fill-opacity="1" fill-rule="nonzero"/></g></svg>