<svg xmlns="http://www.w3.org/2000/svg" xmlns:xlink="http://www.w3.org/1999/xlink" width="500" zoomAndPan="magnify" viewBox="0 0 375 374.999991" height="500" preserveAspectRatio="xMidYMid meet" version="1.0"><defs><clipPath id="3406653779"><path d="M 48.234375 2 L 326.484375 2 L 326.484375 100 L 48.234375 100 Z M 48.234375 2 " clip-rule="nonzero"/></clipPath></defs><g clip-path="url(#3406653779)"><path fill="#eb4747" d="M 307.3125 45.015625 L 257.398438 45.015625 L 257.398438 22.097656 C 257.394531 21.445312 257.363281 20.796875 257.300781 20.152344 C 257.234375 19.503906 257.140625 18.863281 257.011719 18.226562 C 256.882812 17.589844 256.726562 16.960938 256.539062 16.335938 C 256.347656 15.714844 256.128906 15.105469 255.878906 14.503906 C 255.632812 13.90625 255.351562 13.316406 255.046875 12.746094 C 254.742188 12.171875 254.40625 11.617188 254.046875 11.074219 C 253.683594 10.535156 253.296875 10.015625 252.886719 9.511719 C 252.472656 9.007812 252.035156 8.527344 251.578125 8.070312 C 251.117188 7.609375 250.636719 7.171875 250.132812 6.761719 C 249.632812 6.347656 249.109375 5.960938 248.570312 5.601562 C 248.03125 5.238281 247.472656 4.90625 246.902344 4.597656 C 246.328125 4.292969 245.742188 4.015625 245.140625 3.765625 C 244.539062 3.515625 243.929688 3.296875 243.308594 3.109375 C 242.6875 2.917969 242.058594 2.761719 241.417969 2.632812 C 240.78125 2.507812 240.140625 2.410156 239.492188 2.347656 C 238.847656 2.28125 238.199219 2.25 237.550781 2.25 L 138.113281 2.25 C 137.464844 2.25 136.816406 2.28125 136.167969 2.347656 C 135.523438 2.410156 134.878906 2.507812 134.242188 2.632812 C 133.605469 2.761719 132.976562 2.917969 132.355469 3.109375 C 131.734375 3.296875 131.121094 3.515625 130.523438 3.765625 C 129.921875 4.015625 129.335938 4.292969 128.761719 4.597656 C 128.1875 4.90625 127.632812 5.238281 127.09375 5.601562 C 126.550781 5.960938 126.03125 6.347656 125.527344 6.761719 C 125.027344 7.171875 124.546875 7.609375 124.085938 8.070312 C 123.625 8.527344 123.191406 9.007812 122.777344 9.511719 C 122.367188 10.015625 121.980469 10.535156 121.617188 11.074219 C 121.257812 11.617188 120.921875 12.171875 120.617188 12.746094 C 120.308594 13.316406 120.03125 13.90625 119.78125 14.503906 C 119.535156 15.105469 119.316406 15.714844 119.125 16.335938 C 118.9375 16.960938 118.777344 17.589844 118.652344 18.226562 C 118.523438 18.863281 118.429688 19.503906 118.363281 20.152344 C 118.300781 20.796875 118.265625 21.445312 118.265625 22.097656 L 118.265625 45.015625 L 68.347656 45.015625 C 67.695312 45.015625 67.046875 45.046875 66.402344 45.113281 C 65.753906 45.175781 65.113281 45.273438 64.476562 45.398438 C 63.839844 45.527344 63.210938 45.683594 62.585938 45.875 C 61.964844 46.0625 61.355469 46.28125 60.753906 46.53125 C 60.152344 46.78125 59.566406 47.058594 58.996094 47.363281 C 58.421875 47.671875 57.863281 48.003906 57.324219 48.367188 C 56.785156 48.726562 56.261719 49.113281 55.761719 49.527344 C 55.257812 49.9375 54.777344 50.375 54.316406 50.832031 C 53.859375 51.292969 53.421875 51.773438 53.011719 52.277344 C 52.597656 52.777344 52.210938 53.300781 51.851562 53.839844 C 51.488281 54.378906 51.15625 54.9375 50.847656 55.511719 C 50.542969 56.082031 50.265625 56.667969 50.015625 57.269531 C 49.765625 57.871094 49.546875 58.480469 49.359375 59.101562 C 49.167969 59.722656 49.011719 60.355469 48.882812 60.992188 C 48.757812 61.628906 48.660156 62.269531 48.597656 62.917969 C 48.53125 63.5625 48.5 64.210938 48.5 64.863281 L 48.5 79.417969 C 48.5 80.066406 48.53125 80.714844 48.597656 81.363281 C 48.660156 82.007812 48.757812 82.648438 48.882812 83.289062 C 49.011719 83.925781 49.167969 84.554688 49.359375 85.175781 C 49.546875 85.796875 49.765625 86.410156 50.015625 87.007812 C 50.265625 87.609375 50.542969 88.195312 50.847656 88.769531 C 51.15625 89.339844 51.488281 89.898438 51.851562 90.4375 C 52.210938 90.980469 52.597656 91.5 53.011719 92.003906 C 53.421875 92.503906 53.859375 92.984375 54.316406 93.445312 C 54.777344 93.90625 55.257812 94.339844 55.761719 94.753906 C 56.261719 95.164062 56.785156 95.550781 57.324219 95.914062 C 57.863281 96.273438 58.421875 96.609375 58.996094 96.914062 C 59.566406 97.222656 60.152344 97.5 60.753906 97.746094 C 61.355469 97.996094 61.964844 98.214844 62.585938 98.40625 C 63.210938 98.59375 63.839844 98.753906 64.476562 98.878906 C 65.113281 99.007812 65.753906 99.101562 66.402344 99.167969 C 67.046875 99.230469 67.695312 99.265625 68.347656 99.265625 L 307.3125 99.265625 C 307.964844 99.265625 308.613281 99.230469 309.257812 99.167969 C 309.90625 99.101562 310.546875 99.007812 311.183594 98.878906 C 311.820312 98.753906 312.453125 98.59375 313.074219 98.40625 C 313.695312 98.214844 314.304688 97.996094 314.90625 97.746094 C 315.507812 97.5 316.09375 97.222656 316.667969 96.914062 C 317.238281 96.609375 317.796875 96.273438 318.335938 95.914062 C 318.875 95.550781 319.398438 95.164062 319.898438 94.753906 C 320.402344 94.339844 320.882812 93.90625 321.34375 93.445312 C 321.800781 92.984375 322.238281 92.503906 322.648438 92.003906 C 323.0625 91.5 323.449219 90.980469 323.808594 90.4375 C 324.171875 89.898438 324.503906 89.339844 324.8125 88.769531 C 325.117188 88.195312 325.398438 87.609375 325.644531 87.007812 C 325.894531 86.410156 326.113281 85.796875 326.300781 85.175781 C 326.492188 84.554688 326.648438 83.925781 326.777344 83.289062 C 326.90625 82.648438 327 82.007812 327.066406 81.363281 C 327.128906 80.714844 327.160156 80.066406 327.164062 79.417969 L 327.164062 64.863281 C 327.160156 64.210938 327.128906 63.5625 327.066406 62.917969 C 327 62.269531 326.90625 61.628906 326.777344 60.992188 C 326.648438 60.355469 326.492188 59.722656 326.300781 59.101562 C 326.113281 58.480469 325.894531 57.871094 325.644531 57.269531 C 325.398438 56.667969 325.117188 56.082031 324.8125 55.511719 C 324.503906 54.9375 324.171875 54.378906 323.808594 53.839844 C 323.449219 53.300781 323.0625 52.777344 322.648438 52.277344 C 322.238281 51.773438 321.800781 51.292969 321.34375 50.832031 C 320.882812 50.375 320.402344 49.9375 319.898438 49.527344 C 319.398438 49.113281 318.875 48.726562 318.335938 48.367188 C 317.796875 48.003906 317.238281 47.671875 316.667969 47.363281 C 316.09375 47.058594 315.507812 46.78125 314.90625 46.53125 C 314.304688 46.28125 313.695312 46.0625 313.074219 45.875 C 312.453125 45.683594 311.820312 45.527344 311.183594 45.398438 C 310.546875 45.273438 309.90625 45.175781 309.257812 45.113281 C 308.613281 45.046875 307.964844 45.015625 307.3125 45.015625 Z M 131.5 22.097656 C 131.5 21.664062 131.542969 21.234375 131.625 20.804688 C 131.710938 20.378906 131.835938 19.96875 132.003906 19.566406 C 132.167969 19.164062 132.375 18.785156 132.613281 18.421875 C 132.855469 18.0625 133.128906 17.726562 133.4375 17.421875 C 133.746094 17.113281 134.078125 16.839844 134.441406 16.597656 C 134.800781 16.355469 135.183594 16.152344 135.582031 15.984375 C 135.984375 15.820312 136.398438 15.695312 136.824219 15.609375 C 137.25 15.523438 137.679688 15.480469 138.113281 15.480469 L 237.546875 15.480469 C 237.980469 15.480469 238.410156 15.523438 238.835938 15.609375 C 239.261719 15.695312 239.675781 15.820312 240.078125 15.984375 C 240.480469 16.152344 240.859375 16.355469 241.222656 16.597656 C 241.582031 16.839844 241.914062 17.113281 242.222656 17.421875 C 242.53125 17.726562 242.804688 18.0625 243.046875 18.421875 C 243.285156 18.785156 243.492188 19.164062 243.65625 19.566406 C 243.824219 19.96875 243.949219 20.378906 244.035156 20.804688 C 244.121094 21.234375 244.164062 21.664062 244.164062 22.097656 L 244.164062 45.015625 L 131.5 45.015625 Z M 131.5 22.097656 " fill-opacity="1" fill-rule="nonzero"/></g><path fill="#eb4747" d="M 84.695312 341.257812 C 84.746094 342.308594 84.84375 343.351562 84.992188 344.390625 C 85.140625 345.429688 85.339844 346.460938 85.589844 347.480469 C 85.835938 348.503906 86.132812 349.507812 86.472656 350.503906 C 86.816406 351.496094 87.207031 352.46875 87.644531 353.425781 C 88.082031 354.378906 88.5625 355.3125 89.085938 356.222656 C 89.613281 357.132812 90.179688 358.015625 90.789062 358.871094 C 91.398438 359.726562 92.046875 360.550781 92.734375 361.34375 C 93.421875 362.136719 94.148438 362.894531 94.90625 363.621094 C 95.667969 364.34375 96.460938 365.03125 97.285156 365.679688 C 98.113281 366.328125 98.96875 366.9375 99.851562 367.503906 C 100.734375 368.074219 101.644531 368.597656 102.578125 369.078125 C 103.511719 369.558594 104.464844 369.992188 105.441406 370.382812 C 106.417969 370.773438 107.410156 371.117188 108.417969 371.410156 C 109.425781 371.707031 110.445312 371.953125 111.476562 372.148438 C 112.507812 372.347656 113.546875 372.496094 114.59375 372.59375 C 115.636719 372.695312 116.6875 372.742188 117.738281 372.742188 L 257.925781 372.742188 C 258.976562 372.742188 260.023438 372.695312 261.066406 372.59375 C 262.113281 372.496094 263.152344 372.347656 264.183594 372.152344 C 265.214844 371.953125 266.234375 371.707031 267.242188 371.410156 C 268.25 371.117188 269.242188 370.773438 270.21875 370.382812 C 271.195312 369.996094 272.148438 369.558594 273.082031 369.078125 C 274.015625 368.597656 274.925781 368.074219 275.808594 367.507812 C 276.691406 366.9375 277.546875 366.332031 278.375 365.683594 C 279.199219 365.035156 279.992188 364.347656 280.753906 363.621094 C 281.511719 362.898438 282.238281 362.136719 282.925781 361.34375 C 283.613281 360.550781 284.261719 359.726562 284.871094 358.871094 C 285.480469 358.015625 286.046875 357.132812 286.574219 356.222656 C 287.097656 355.316406 287.578125 354.382812 288.015625 353.425781 C 288.453125 352.472656 288.84375 351.496094 289.1875 350.503906 C 289.527344 349.511719 289.824219 348.503906 290.070312 347.484375 C 290.320312 346.464844 290.519531 345.433594 290.667969 344.394531 C 290.816406 343.355469 290.917969 342.308594 290.964844 341.261719 L 302.039062 112.496094 L 73.625 112.496094 Z M 234.140625 161.015625 C 234.140625 160.582031 234.183594 160.152344 234.269531 159.726562 C 234.355469 159.300781 234.480469 158.886719 234.644531 158.484375 C 234.8125 158.082031 235.015625 157.703125 235.257812 157.339844 C 235.5 156.980469 235.773438 156.644531 236.078125 156.335938 C 236.386719 156.03125 236.722656 155.757812 237.082031 155.515625 C 237.445312 155.273438 237.824219 155.070312 238.226562 154.902344 C 238.628906 154.738281 239.042969 154.613281 239.46875 154.527344 C 239.894531 154.441406 240.324219 154.398438 240.757812 154.398438 C 241.191406 154.398438 241.621094 154.441406 242.046875 154.527344 C 242.476562 154.613281 242.886719 154.738281 243.289062 154.902344 C 243.691406 155.070312 244.074219 155.273438 244.433594 155.515625 C 244.792969 155.757812 245.128906 156.03125 245.4375 156.335938 C 245.742188 156.644531 246.015625 156.980469 246.257812 157.339844 C 246.5 157.703125 246.703125 158.082031 246.871094 158.484375 C 247.035156 158.886719 247.160156 159.300781 247.246094 159.726562 C 247.332031 160.152344 247.375 160.582031 247.375 161.015625 L 247.375 297.757812 C 247.375 298.191406 247.332031 298.621094 247.246094 299.046875 C 247.160156 299.472656 247.035156 299.886719 246.871094 300.289062 C 246.703125 300.691406 246.5 301.070312 246.257812 301.433594 C 246.015625 301.792969 245.742188 302.128906 245.4375 302.433594 C 245.128906 302.742188 244.792969 303.015625 244.433594 303.257812 C 244.074219 303.5 243.691406 303.703125 243.289062 303.871094 C 242.886719 304.035156 242.476562 304.160156 242.046875 304.246094 C 241.621094 304.332031 241.191406 304.371094 240.757812 304.371094 C 240.324219 304.371094 239.894531 304.332031 239.46875 304.246094 C 239.042969 304.160156 238.628906 304.035156 238.226562 303.871094 C 237.824219 303.703125 237.445312 303.5 237.082031 303.257812 C 236.722656 303.015625 236.386719 302.742188 236.078125 302.433594 C 235.773438 302.128906 235.5 301.792969 235.257812 301.433594 C 235.015625 301.070312 234.8125 300.691406 234.644531 300.289062 C 234.480469 299.886719 234.355469 299.472656 234.269531 299.046875 C 234.183594 298.621094 234.140625 298.191406 234.140625 297.757812 Z M 181.214844 161.015625 C 181.214844 160.582031 181.257812 160.152344 181.339844 159.726562 C 181.425781 159.300781 181.550781 158.886719 181.71875 158.484375 C 181.882812 158.082031 182.089844 157.703125 182.328125 157.339844 C 182.570312 156.980469 182.84375 156.644531 183.152344 156.335938 C 183.460938 156.03125 183.792969 155.757812 184.15625 155.515625 C 184.515625 155.273438 184.898438 155.070312 185.296875 154.902344 C 185.699219 154.738281 186.113281 154.613281 186.539062 154.527344 C 186.964844 154.441406 187.394531 154.398438 187.832031 154.398438 C 188.265625 154.398438 188.695312 154.441406 189.121094 154.527344 C 189.546875 154.613281 189.960938 154.738281 190.363281 154.902344 C 190.761719 155.070312 191.144531 155.273438 191.507812 155.515625 C 191.867188 155.757812 192.203125 156.03125 192.507812 156.335938 C 192.816406 156.644531 193.089844 156.980469 193.332031 157.339844 C 193.574219 157.703125 193.777344 158.082031 193.941406 158.484375 C 194.109375 158.886719 194.234375 159.300781 194.320312 159.726562 C 194.402344 160.152344 194.445312 160.582031 194.445312 161.015625 L 194.445312 297.757812 C 194.445312 298.191406 194.402344 298.621094 194.320312 299.046875 C 194.234375 299.472656 194.109375 299.886719 193.941406 300.289062 C 193.777344 300.691406 193.574219 301.070312 193.332031 301.433594 C 193.089844 301.792969 192.816406 302.128906 192.507812 302.433594 C 192.203125 302.742188 191.867188 303.015625 191.507812 303.257812 C 191.144531 303.5 190.761719 303.703125 190.363281 303.871094 C 189.960938 304.035156 189.546875 304.160156 189.121094 304.246094 C 188.695312 304.332031 188.265625 304.371094 187.832031 304.371094 C 187.394531 304.371094 186.964844 304.332031 186.539062 304.246094 C 186.113281 304.160156 185.699219 304.035156 185.296875 303.871094 C 184.898438 303.703125 184.515625 303.5 184.15625 303.257812 C 183.792969 303.015625 183.460938 302.742188 183.152344 302.433594 C 182.84375 302.128906 182.570312 301.792969 182.328125 301.433594 C 182.089844 301.070312 181.882812 300.691406 181.71875 300.289062 C 181.550781 299.886719 181.425781 299.472656 181.339844 299.046875 C 181.257812 298.621094 181.214844 298.191406 181.214844 297.757812 Z M 128.285156 161.015625 C 128.285156 160.582031 128.328125 160.152344 128.414062 159.726562 C 128.5 159.300781 128.625 158.886719 128.789062 158.484375 C 128.957031 158.082031 129.160156 157.703125 129.402344 157.339844 C 129.644531 156.980469 129.917969 156.644531 130.226562 156.335938 C 130.53125 156.03125 130.867188 155.757812 131.226562 155.515625 C 131.589844 155.273438 131.96875 155.070312 132.371094 154.902344 C 132.773438 154.738281 133.1875 154.613281 133.613281 154.527344 C 134.039062 154.441406 134.46875 154.398438 134.902344 154.398438 C 135.335938 154.398438 135.765625 154.441406 136.195312 154.527344 C 136.621094 154.613281 137.035156 154.738281 137.433594 154.902344 C 137.835938 155.070312 138.21875 155.273438 138.578125 155.515625 C 138.941406 155.757812 139.273438 156.03125 139.582031 156.335938 C 139.886719 156.644531 140.164062 156.980469 140.402344 157.339844 C 140.644531 157.703125 140.847656 158.082031 141.015625 158.484375 C 141.179688 158.886719 141.308594 159.300781 141.390625 159.726562 C 141.476562 160.152344 141.519531 160.582031 141.519531 161.015625 L 141.519531 297.757812 C 141.519531 298.191406 141.476562 298.621094 141.390625 299.046875 C 141.308594 299.472656 141.179688 299.886719 141.015625 300.289062 C 140.847656 300.691406 140.644531 301.070312 140.402344 301.433594 C 140.164062 301.792969 139.886719 302.128906 139.582031 302.433594 C 139.273438 302.742188 138.941406 303.015625 138.578125 303.257812 C 138.21875 303.5 137.835938 303.703125 137.433594 303.871094 C 137.035156 304.035156 136.621094 304.160156 136.195312 304.246094 C 135.765625 304.332031 135.335938 304.371094 134.902344 304.371094 C 134.46875 304.371094 134.039062 304.332031 133.613281 304.246094 C 133.1875 304.160156 132.773438 304.035156 132.371094 303.871094 C 131.96875 303.703125 131.589844 303.5 131.226562 303.257812 C 130.867188 303.015625 130.53125 302.742188 130.226562 302.433594 C 129.917969 302.128906 129.644531 301.792969 129.402344 301.433594 C 129.160156 301.070312 128.957031 300.691406 128.789062 300.289062 C 128.625 299.886719 128.5 299.472656 128.414062 299.046875 C 128.328125 298.621094 128.285156 298.191406 128.285156 297.757812 Z M 128.285156 161.015625 " fill-opacity="1" fill-rule="nonzero"/></svg>