<svg xmlns="http://www.w3.org/2000/svg" xmlns:xlink="http://www.w3.org/1999/xlink" width="500" zoomAndPan="magnify" viewBox="0 0 375 374.999991" height="500" preserveAspectRatio="xMidYMid meet" version="1.0"><defs><clipPath id="def763a244"><path d="M 58.261719 25 L 307.261719 25 L 307.261719 350.953125 L 58.261719 350.953125 Z M 58.261719 25 " clip-rule="nonzero"/></clipPath></defs><path fill="#ffffff" d="M 297.730469 92.574219 L 297.730469 299.359375 C 297.730469 322.625 278.875 341.476562 255.613281 341.476562 L 110.089844 341.476562 C 86.824219 341.476562 67.972656 322.625 67.972656 299.359375 L 67.972656 77.25 C 67.972656 53.988281 86.824219 35.136719 110.089844 35.136719 L 240.289062 35.136719 L 259.4375 73.429688 Z M 297.730469 92.574219 " fill-opacity="1" fill-rule="nonzero"/><path fill="#0e2b63" d="M 297.730469 92.574219 L 240.289062 92.574219 L 240.289062 35.136719 Z M 297.730469 92.574219 " fill-opacity="1" fill-rule="nonzero"/><g clip-path="url(#def763a244)"><path fill="#0e2b63" d="M 304.496094 85.804688 C 242.625 23.957031 246.378906 26.945312 242.972656 25.953125 C 240.390625 25.199219 247.882812 25.738281 110.085938 25.5625 C 81.585938 25.5625 58.398438 48.75 58.398438 77.25 L 58.398438 299.363281 C 58.398438 327.863281 81.585938 351.050781 110.085938 351.050781 L 255.613281 351.050781 C 284.113281 351.050781 307.300781 327.863281 307.300781 299.363281 L 307.300781 92.574219 C 307.300781 89.960938 306.238281 87.546875 304.496094 85.804688 Z M 249.863281 58.246094 L 274.617188 83.003906 L 249.863281 83.003906 Z M 255.617188 331.902344 L 110.085938 331.902344 C 92.144531 331.902344 77.546875 317.304688 77.546875 299.363281 L 77.546875 77.25 C 77.546875 59.308594 92.144531 44.710938 110.085938 44.710938 L 230.714844 44.710938 L 230.714844 92.574219 C 230.714844 97.863281 235.003906 102.148438 240.289062 102.148438 L 288.15625 102.148438 L 288.15625 299.363281 C 288.15625 317.304688 273.558594 331.902344 255.617188 331.902344 Z M 255.617188 331.902344 " fill-opacity="1" fill-rule="nonzero"/></g><path fill="#0e2b63" d="M 192.425781 274.464844 L 115.839844 274.464844 C 110.550781 274.464844 106.265625 278.75 106.265625 284.039062 C 106.265625 289.324219 110.550781 293.609375 115.839844 293.609375 L 192.425781 293.609375 C 197.710938 293.609375 201.996094 289.324219 201.996094 284.039062 C 201.996094 278.75 197.710938 274.464844 192.425781 274.464844 Z M 192.425781 274.464844 " fill-opacity="1" fill-rule="nonzero"/><path fill="#0e2b63" d="M 249.863281 236.171875 L 115.839844 236.171875 C 110.550781 236.171875 106.265625 240.457031 106.265625 245.746094 C 106.265625 251.03125 110.550781 255.320312 115.839844 255.320312 L 249.863281 255.320312 C 255.148438 255.320312 259.4375 251.03125 259.4375 245.746094 C 259.4375 240.457031 255.148438 236.171875 249.863281 236.171875 Z M 249.863281 236.171875 " fill-opacity="1" fill-rule="nonzero"/><path fill="#0e2b63" d="M 249.863281 197.878906 L 115.839844 197.878906 C 110.550781 197.878906 106.265625 202.164062 106.265625 207.453125 C 106.265625 212.738281 110.550781 217.027344 115.839844 217.027344 L 249.863281 217.027344 C 255.148438 217.027344 259.4375 212.738281 259.4375 207.453125 C 259.4375 202.164062 255.148438 197.878906 249.863281 197.878906 Z M 249.863281 197.878906 " fill-opacity="1" fill-rule="nonzero"/><path fill="#0e2b63" d="M 249.863281 159.585938 L 115.839844 159.585938 C 110.550781 159.585938 106.265625 163.875 106.265625 169.160156 C 106.265625 174.445312 110.550781 178.734375 115.839844 178.734375 L 249.863281 178.734375 C 255.148438 178.734375 259.4375 174.445312 259.4375 169.160156 C 259.4375 163.875 255.148438 159.585938 249.863281 159.585938 Z M 249.863281 159.585938 " fill-opacity="1" fill-rule="nonzero"/></svg>