<svg xmlns="http://www.w3.org/2000/svg" xmlns:xlink="http://www.w3.org/1999/xlink" width="500" zoomAndPan="magnify" viewBox="0 0 375 374.999991" height="500" preserveAspectRatio="xMidYMid meet" version="1.0"><defs><clipPath id="7e9d87acff"><path d="M 9.539062 37.5 L 365.789062 37.5 L 365.789062 122 L 9.539062 122 Z M 9.539062 37.5 " clip-rule="nonzero"/></clipPath><clipPath id="e28e333220"><path d="M 9.542969 86.882812 L 365.453125 86.882812 L 365.453125 332.902344 L 9.542969 332.902344 Z M 9.542969 86.882812 " clip-rule="nonzero"/></clipPath></defs><g clip-path="url(#7e9d87acff)"><path fill="#efefef" d="M 9.542969 121.4375 L 9.542969 69.527344 C 9.542969 51.839844 23.882812 37.5 41.570312 37.5 L 110.371094 37.5 C 117.152344 37.5 123.757812 39.652344 129.238281 43.648438 L 159.195312 65.480469 L 333.425781 65.480469 C 351.113281 65.480469 365.453125 79.820312 365.453125 97.507812 L 365.453125 121.4375 L 9.542969 121.4375 " fill-opacity="1" fill-rule="nonzero"/></g><g clip-path="url(#e28e333220)"><path fill="#ffffff" d="M 333.425781 86.953125 L 41.570312 86.953125 C 23.882812 86.953125 9.542969 101.292969 9.542969 118.980469 L 9.542969 300.875 C 9.542969 318.5625 23.882812 332.902344 41.570312 332.902344 L 333.425781 332.902344 C 351.113281 332.902344 365.453125 318.5625 365.453125 300.875 L 365.453125 118.980469 C 365.453125 101.292969 351.113281 86.953125 333.425781 86.953125 " fill-opacity="1" fill-rule="nonzero"/></g></svg>