<svg xmlns="http://www.w3.org/2000/svg" xmlns:xlink="http://www.w3.org/1999/xlink" width="30" zoomAndPan="magnify" viewBox="0 0 375 374.999991" height="500" preserveAspectRatio="xMidYMid meet" version="1.0"><defs><clipPath id="7a51e384bb"><path d="M 197 69.140625 L 375 69.140625 L 375 240 L 197 240 Z M 197 69.140625 " clip-rule="nonzero"/></clipPath></defs><path fill="#0e2b63" d="M 211.042969 257.480469 L 210.253906 257.558594 L 209.703125 257.558594 C 202.636719 257.558594 196.085938 254.320312 191.78125 248.953125 C 180.335938 263.085938 165.023438 273.9375 147.457031 279.742188 C 153.617188 266.597656 157.917969 249.585938 160.523438 231.035156 L 186.847656 231.035156 C 187.480469 226.574219 189.335938 222.351562 192.492188 218.878906 C 194.546875 216.550781 196.714844 213.589844 198.847656 209.996094 L 162.613281 209.996094 C 163.046875 202.933594 163.324219 195.75 163.324219 188.605469 C 163.324219 181.539062 163.046875 174.355469 162.613281 167.210938 L 182.742188 167.210938 C 180.691406 160.425781 179.507812 153.359375 179.347656 146.253906 L 160.5625 146.253906 C 157.957031 127.742188 153.65625 110.613281 147.496094 97.46875 C 160.996094 102.046875 173.113281 109.46875 183.21875 119.058594 C 185.347656 112.074219 188.507812 105.441406 192.453125 99.207031 C 172.046875 81.917969 145.839844 71.539062 117.105469 71.539062 C 52.535156 71.578125 0 124.113281 0 188.683594 C 0 253.296875 52.535156 305.828125 117.066406 305.828125 C 155.984375 305.828125 190.558594 286.765625 211.675781 257.402344 C 211.515625 257.480469 211.242188 257.480469 211.042969 257.480469 Z M 117.066406 92.535156 C 122.710938 92.535156 134 110.8125 139.367188 146.332031 L 94.804688 146.332031 C 100.171875 110.8125 111.421875 92.535156 117.066406 92.535156 Z M 86.636719 97.550781 C 80.476562 110.691406 76.175781 127.78125 73.570312 146.332031 L 30.863281 146.332031 C 42.230469 123.519531 62.203125 105.796875 86.636719 97.550781 Z M 20.957031 188.683594 C 20.957031 181.34375 21.867188 174.199219 23.445312 167.292969 L 71.519531 167.292969 C 71.085938 174.4375 70.808594 181.617188 70.808594 188.683594 C 70.808594 195.828125 71.085938 203.011719 71.519531 210.078125 L 23.445312 210.078125 C 21.828125 203.167969 20.957031 196.105469 20.957031 188.683594 Z M 30.863281 231.074219 L 73.570312 231.074219 C 76.175781 249.585938 80.476562 266.597656 86.714844 279.78125 C 62.203125 271.648438 42.230469 253.925781 30.863281 231.074219 Z M 117.066406 284.792969 C 111.421875 284.792969 100.132812 266.636719 94.765625 231.074219 L 139.328125 231.074219 C 134 266.636719 122.710938 284.792969 117.066406 284.792969 Z M 141.695312 210.035156 L 92.554688 210.035156 C 92.003906 203.40625 91.765625 196.261719 91.765625 188.644531 C 91.765625 181.105469 92.042969 173.960938 92.554688 167.253906 L 141.695312 167.253906 C 142.128906 173.960938 142.40625 181.105469 142.40625 188.644531 C 142.40625 196.261719 142.128906 203.445312 141.695312 210.035156 Z M 141.695312 210.035156 " fill-opacity="1" fill-rule="nonzero"/><g clip-path="url(#7a51e384bb)"><path fill="#0e2b63" d="M 286.074219 69.171875 C 236.976562 69.171875 197.191406 102.601562 197.191406 143.808594 C 197.191406 164.964844 207.6875 184.027344 224.542969 197.605469 C 220.753906 207.433594 214.359375 221.484375 205.832031 230.917969 C 202.714844 234.390625 205.398438 239.875 210.097656 239.640625 C 237.449219 238.101562 255.527344 225.234375 265 216.273438 C 271.789062 217.65625 278.851562 218.484375 286.113281 218.484375 C 335.214844 218.484375 375 185.054688 375 143.847656 C 374.960938 102.601562 335.175781 69.171875 286.074219 69.171875 Z M 242.621094 158.449219 C 234.488281 158.449219 227.859375 151.859375 227.859375 143.6875 C 227.859375 135.558594 234.449219 128.925781 242.621094 128.925781 C 250.75 128.925781 257.378906 135.519531 257.378906 143.6875 C 257.339844 151.859375 250.75 158.449219 242.621094 158.449219 Z M 286.074219 158.449219 C 277.945312 158.449219 271.3125 151.859375 271.3125 143.6875 C 271.3125 135.558594 277.90625 128.925781 286.074219 128.925781 C 294.207031 128.925781 300.835938 135.519531 300.835938 143.6875 C 300.835938 151.859375 294.246094 158.449219 286.074219 158.449219 Z M 329.570312 158.449219 C 321.441406 158.449219 314.808594 151.859375 314.808594 143.6875 C 314.808594 135.558594 321.402344 128.925781 329.570312 128.925781 C 337.703125 128.925781 344.332031 135.519531 344.332031 143.6875 C 344.292969 151.859375 337.703125 158.449219 329.570312 158.449219 Z M 329.570312 158.449219 " fill-opacity="1" fill-rule="nonzero"/></g></svg>